<svg width="139" height="25" viewBox="0 0 139 25" fill="none" xmlns="http://www.w3.org/2000/svg">
<path d="M10.272 19L4.786 10.966H1.458V19H0.028V0.799999H5.93C7.542 0.799999 8.85933 1.242 9.882 2.126C10.922 3.01 11.442 4.258 11.442 5.87C11.442 7.378 10.9827 8.574 10.064 9.458C9.16267 10.342 7.984 10.836 6.528 10.94L12.066 19H10.272ZM1.458 2.152V9.614H5.826C7.09133 9.614 8.088 9.28467 8.816 8.626C9.544 7.95 9.908 7.03133 9.908 5.87C9.908 4.70867 9.544 3.79867 8.816 3.14C8.088 2.48133 7.09133 2.152 5.826 2.152H1.458ZM18.8313 6.598C20.7726 6.598 22.2199 7.18733 23.1733 8.366C24.1266 9.54467 24.6033 11.0353 24.6033 12.838V13.124H14.0733C14.0906 14.6493 14.5413 15.8627 15.4253 16.764C16.3266 17.648 17.5053 18.09 18.9613 18.09C20.0533 18.09 20.9286 17.8733 21.5873 17.44C22.2459 16.9893 22.8526 16.3913 23.4073 15.646L24.3953 16.478C23.0259 18.4193 21.2146 19.39 18.9613 19.39C17.0719 19.39 15.5639 18.8093 14.4373 17.648C13.3106 16.4867 12.7473 14.944 12.7473 13.02C12.7473 11.044 13.3106 9.484 14.4373 8.34C15.5639 7.17867 17.0286 6.598 18.8313 6.598ZM18.7533 7.872C17.5226 7.872 16.4739 8.236 15.6073 8.964C14.7579 9.67467 14.2639 10.6973 14.1253 12.032H23.1733C23.0693 10.7147 22.6359 9.692 21.8733 8.964C21.1279 8.236 20.0879 7.872 18.7533 7.872ZM30.7332 19.39C28.8092 19.39 27.1365 18.8787 25.7152 17.856L26.3912 16.712C27.7605 17.648 29.2252 18.116 30.7852 18.116C31.7385 18.116 32.4492 17.934 32.9172 17.57C33.4025 17.206 33.6452 16.738 33.6452 16.166C33.6452 15.334 32.9952 14.6147 31.6952 14.008L29.4332 12.968C27.6479 12.1533 26.7552 11.0527 26.7552 9.666C26.7552 8.678 27.1105 7.924 27.8212 7.404C28.5492 6.86667 29.5285 6.598 30.7592 6.598C32.1285 6.598 33.4545 6.91867 34.7372 7.56L34.1392 8.756C32.9952 8.16667 31.8685 7.872 30.7592 7.872C29.9619 7.872 29.3292 8.01933 28.8612 8.314C28.3932 8.60867 28.1592 9.042 28.1592 9.614C28.1592 10.0993 28.3239 10.5067 28.6532 10.836C28.9825 11.148 29.4852 11.46 30.1612 11.772L32.3192 12.76C33.1859 13.1587 33.8532 13.618 34.3212 14.138C34.7892 14.6407 35.0232 15.308 35.0232 16.14C35.0232 17.1973 34.6419 18.0033 33.8792 18.558C33.1165 19.1127 32.0679 19.39 30.7332 19.39ZM48.9639 0.799999V3.348H43.8419V19H41.1379V3.348H36.0159V0.799999H48.9639ZM53.38 19.39C51.7333 19.39 50.3467 18.8093 49.22 17.648C48.0933 16.4867 47.53 14.9353 47.53 12.994C47.53 11.0527 48.0933 9.50133 49.22 8.34C50.3467 7.17867 51.7333 6.598 53.38 6.598C55.252 6.598 56.604 7.31733 57.436 8.756H57.488V6.988H60.036V19H57.488V17.232H57.436C56.604 18.6707 55.252 19.39 53.38 19.39ZM51.248 15.828C51.924 16.5387 52.8167 16.894 53.926 16.894C55.0353 16.894 55.928 16.5387 56.604 15.828C57.28 15.1 57.618 14.1553 57.618 12.994C57.618 11.8327 57.28 10.8967 56.604 10.186C55.928 9.458 55.0353 9.094 53.926 9.094C52.8167 9.094 51.924 9.458 51.248 10.186C50.572 10.8967 50.234 11.8327 50.234 12.994C50.234 14.1553 50.572 15.1 51.248 15.828ZM63.1635 19V6.988H65.7115V8.86H65.7635C66.4222 7.352 67.6268 6.598 69.3775 6.598C71.1282 6.598 72.3415 7.41267 73.0175 9.042H73.0695C73.4162 8.22733 73.9275 7.62067 74.6035 7.222C75.2795 6.806 76.0248 6.598 76.8395 6.598C78.0528 6.598 79.0408 7.00533 79.8035 7.82C80.5662 8.63467 80.9475 9.88267 80.9475 11.564V19H78.3995V11.694C78.3995 9.99533 77.6108 9.146 76.0335 9.146C75.2015 9.146 74.5428 9.44067 74.0575 10.03C73.5722 10.602 73.3295 11.512 73.3295 12.76V19H70.7815V11.694C70.7815 9.99533 69.9842 9.146 68.3895 9.146C67.5748 9.146 66.9248 9.44067 66.4395 10.03C65.9542 10.6193 65.7115 11.538 65.7115 12.786V19H63.1635ZM83.933 24.2V6.988H86.481V8.756H86.533C87.365 7.31733 88.717 6.598 90.589 6.598C92.2357 6.598 93.6224 7.17867 94.749 8.34C95.8757 9.50133 96.439 11.0527 96.439 12.994C96.439 14.9353 95.8757 16.4867 94.749 17.648C93.6224 18.8093 92.2357 19.39 90.589 19.39C88.717 19.39 87.365 18.6707 86.533 17.232H86.481V24.2H83.933ZM87.365 15.828C88.041 16.5387 88.9337 16.894 90.043 16.894C91.1524 16.894 92.045 16.5387 92.721 15.828C93.397 15.1 93.735 14.1553 93.735 12.994C93.735 11.8327 93.397 10.8967 92.721 10.186C92.045 9.458 91.1524 9.094 90.043 9.094C88.9337 9.094 88.041 9.458 87.365 10.186C86.689 10.8967 86.351 11.8327 86.351 12.994C86.351 14.1553 86.689 15.1 87.365 15.828ZM101.465 0.799999V19H98.9166V0.799999H101.465ZM109.773 19.39C108.126 19.39 106.739 18.8093 105.613 17.648C104.486 16.4867 103.923 14.9353 103.923 12.994C103.923 11.0527 104.486 9.50133 105.613 8.34C106.739 7.17867 108.126 6.598 109.773 6.598C111.645 6.598 112.997 7.31733 113.829 8.756H113.881V6.988H116.429V19H113.881V17.232H113.829C112.997 18.6707 111.645 19.39 109.773 19.39ZM107.641 15.828C108.317 16.5387 109.209 16.894 110.319 16.894C111.428 16.894 112.321 16.5387 112.997 15.828C113.673 15.1 114.011 14.1553 114.011 12.994C114.011 11.8327 113.673 10.8967 112.997 10.186C112.321 9.458 111.428 9.094 110.319 9.094C109.209 9.094 108.317 9.458 107.641 10.186C106.965 10.8967 106.627 11.8327 106.627 12.994C106.627 14.1553 106.965 15.1 107.641 15.828ZM125.51 9.146H123.066V15.438C123.066 16.27 123.482 16.686 124.314 16.686H124.938V19.026H123.768C122.711 19.026 121.905 18.7573 121.35 18.22C120.795 17.6827 120.518 16.92 120.518 15.932V9.146H118.386V6.988H120.518V2.178H123.066V6.988H125.51V9.146ZM132.428 6.598C134.23 6.598 135.634 7.17867 136.64 8.34C137.662 9.484 138.174 11.0353 138.174 12.994V13.41H128.866C128.918 14.4673 129.273 15.3253 129.932 15.984C130.608 16.6253 131.466 16.946 132.506 16.946C133.927 16.946 135.158 16.244 136.198 14.84L137.992 16.53C136.605 18.4367 134.794 19.39 132.558 19.39C130.651 19.39 129.126 18.8093 127.982 17.648C126.855 16.4693 126.292 14.9267 126.292 13.02C126.292 11.148 126.838 9.614 127.93 8.418C129.039 7.20467 130.538 6.598 132.428 6.598ZM132.272 8.938C131.388 8.938 130.66 9.16333 130.088 9.614C129.516 10.0647 129.152 10.7147 128.996 11.564H135.418C135.366 10.732 135.054 10.0907 134.482 9.64C133.927 9.172 133.19 8.938 132.272 8.938Z" fill="#01153A"/>
</svg>
