<svg width="20" height="20" viewBox="0 0 20 20" xmlns="http://www.w3.org/2000/svg">
<path d="M16.6667 10.0001C16.6667 8.49173 13.5334 6.67923 9.99425 6.66673C6.47925 6.65423 3.33341 8.48173 3.33341 10.0001C3.33341 11.5209 6.46175 13.3384 9.99758 13.3334C13.5434 13.3284 16.6667 11.5167 16.6667 10.0001ZM10.0001 15.0001C5.79842 15.0059 1.66675 12.7617 1.66675 10.0001C1.66675 7.2384 5.82008 4.9859 10.0001 5.00007C14.1801 5.01423 18.3334 7.2384 18.3334 10.0001C18.3334 12.7617 14.2017 14.9942 10.0001 15.0001ZM10.0001 13.3334C9.11603 13.3334 8.26818 12.9822 7.64306 12.3571C7.01794 11.732 6.66675 10.8841 6.66675 10.0001C6.66675 9.11601 7.01794 8.26817 7.64306 7.64304C8.26818 7.01792 9.11603 6.66673 10.0001 6.66673C10.8841 6.66673 11.732 7.01792 12.3571 7.64304C12.9822 8.26817 13.3334 9.11601 13.3334 10.0001C13.3334 10.8841 12.9822 11.732 12.3571 12.3571C11.732 12.9822 10.8841 13.3334 10.0001 13.3334ZM10.0001 11.6667C10.4421 11.6667 10.866 11.4911 11.1786 11.1786C11.4912 10.866 11.6667 10.4421 11.6667 10.0001C11.6667 9.55804 11.4912 9.13412 11.1786 8.82156C10.866 8.50899 10.4421 8.3334 10.0001 8.3334C9.55805 8.3334 9.13413 8.50899 8.82157 8.82156C8.50901 9.13412 8.33342 9.55804 8.33342 10.0001C8.33342 10.4421 8.50901 10.866 8.82157 11.1786C9.13413 11.4911 9.55805 11.6667 10.0001 11.6667Z" />
</svg>
