<svg width="18" height="18" viewBox="0 0 18 18" fill="none" xmlns="http://www.w3.org/2000/svg">
<path d="M12.4082 0.666748C15.3498 0.666748 17.3332 2.55925 17.3332 5.38341V12.6084C17.3332 15.4334 15.3498 17.3334 12.4082 17.3334H5.59984C2.64984 17.3334 0.666504 15.4334 0.666504 12.6084V5.38341C0.666504 2.55925 2.64984 0.666748 5.59984 0.666748H12.4082ZM9.17484 5.43341C8.93317 5.19175 8.53317 5.19175 8.2915 5.43341L5.14984 8.55841C4.9165 8.79175 4.9165 9.20841 5.14984 9.44175L8.2915 12.5667C8.53317 12.8084 8.93317 12.8084 9.17484 12.5667C9.4165 12.3167 9.4165 11.9251 9.17484 11.6751L7.10817 9.62508H12.3998C12.7498 9.62508 13.0248 9.34175 13.0248 9.00008C13.0248 8.65008 12.7498 8.37508 12.3998 8.37508H7.10817L9.17484 6.31675C9.2915 6.20008 9.35817 6.03341 9.35817 5.87508C9.35817 5.71758 9.2915 5.55841 9.17484 5.43341Z" fill="#3679FD"/>
</svg>
