<svg width="18" height="18" viewBox="0 0 18 18" fill="none" xmlns="http://www.w3.org/2000/svg">
<path d="M9.00008 0.666138C13.6084 0.666138 17.3334 4.4003 17.3334 8.99947C17.3334 13.6003 13.6084 17.3328 9.00008 17.3328C4.40008 17.3328 0.666748 13.6003 0.666748 8.99947C0.666748 4.4003 4.40008 0.666138 9.00008 0.666138ZM9.00008 11.442C8.60008 11.442 8.27508 11.767 8.27508 12.167C8.27508 12.567 8.60008 12.9003 9.00841 12.9003C9.40841 12.9003 9.73341 12.567 9.73341 12.167C9.73341 11.767 9.40841 11.442 9.00008 11.442ZM9.00008 5.1078C8.60008 5.1078 8.26675 5.44197 8.26675 5.84114V9.52447C8.26675 9.9253 8.60008 10.2495 9.00008 10.2495C9.40008 10.2495 9.72508 9.9253 9.72508 9.52447V5.84114C9.72508 5.44197 9.40008 5.1078 9.00008 5.1078Z" fill="#3679FD"/>
</svg>
