<svg width="18" height="18" viewBox="0 0 18 18" fill="none" xmlns="http://www.w3.org/2000/svg">
<path d="M8.57724 0.666626C10.646 0.666626 12.3333 2.32496 12.3333 4.36663V8.35829H7.24608C6.8815 8.35829 6.59323 8.64163 6.59323 8.99996C6.59323 9.34996 6.8815 9.64163 7.24608 9.64163H12.3333V13.625C12.3333 15.6666 10.646 17.3333 8.56028 17.3333H4.43116C2.35388 17.3333 0.666626 15.675 0.666626 13.6333V4.37496C0.666626 2.32496 2.36236 0.666626 4.43964 0.666626H8.57724ZM14.4501 6.12513C14.7001 5.86679 15.1085 5.86679 15.3585 6.11679L17.7918 8.54179C17.9168 8.66679 17.9835 8.82513 17.9835 9.00013C17.9835 9.16679 17.9168 9.33346 17.7918 9.45013L15.3585 11.8751C15.2335 12.0001 15.0668 12.0668 14.9085 12.0668C14.7418 12.0668 14.5751 12.0001 14.4501 11.8751C14.2001 11.6251 14.2001 11.2168 14.4501 10.9668L15.7835 9.64179H12.3335V8.35846H15.7835L14.4501 7.03346C14.2001 6.78346 14.2001 6.37513 14.4501 6.12513Z" fill="#3679FD"/>
</svg>
